# 3ds Max Wavefront OBJ Exporter v0.97b - (c)2007 guruware
# File Created: 03.09.2019 22:14:18

#
# object Box005
#

v  -28.9060 0.0000 6.2053
v  -3.3903 0.0000 6.2053
v  -3.3903 0.0000 8.2975
v  -28.9060 0.0000 8.2975
v  -3.3903 0.9504 8.2975
v  -3.3903 0.9504 6.2053
v  -28.9060 0.9504 6.2053
v  -28.9060 0.9504 8.2975
v  21.6201 0.0000 8.2975
v  21.6201 0.0000 6.2053
v  21.6201 0.9504 6.2053
v  21.6201 0.9504 8.2975
v  -6.6297 0.0000 -0.2364
v  16.5131 0.0000 -0.2364
v  16.5131 0.0000 1.8558
v  -6.6297 0.0000 1.8558
v  16.5131 0.9504 1.8558
v  16.5131 0.9504 -0.2364
v  -6.6297 0.9504 -0.2364
v  -6.6297 0.9504 1.8558
v  40.6005 0.0000 1.8558
v  40.6005 0.0000 -0.2364
v  40.6005 0.9504 -0.2364
v  40.6005 0.9504 1.8558
v  43.9625 0.0000 1.8558
v  43.9625 0.0000 -0.2364
v  47.5059 0.0000 -0.2364
v  47.5059 0.0000 1.8558
v  43.9625 0.9504 1.8558
v  47.5059 0.9504 1.8558
v  47.5059 0.9504 -0.2364
v  43.9625 0.9504 -0.2364
v  -32.4090 0.0000 1.8558
v  -32.4090 0.0000 -0.2364
v  -15.8230 0.0000 -0.2364
v  -15.8230 0.0000 1.8558
v  -32.4090 0.9504 1.8558
v  -15.8230 0.9504 1.8558
v  -15.8230 0.9504 -0.2364
v  -32.4090 0.9504 -0.2364
v  -36.3975 0.0000 -4.4827
v  -36.3975 0.0000 -6.5749
v  -21.5807 0.0000 -6.5749
v  -21.5807 0.0000 -4.4827
v  -36.3975 0.9504 -4.4827
v  -21.5807 0.9504 -4.4827
v  -21.5807 0.9504 -6.5749
v  -36.3975 0.9504 -6.5749
v  -28.8802 0.0000 14.6031
v  -28.8802 0.0000 12.5109
v  -9.5839 0.0000 12.5109
v  -9.5839 0.0000 14.6031
v  -28.8802 0.9504 14.6031
v  -9.5839 0.9504 14.6031
v  -9.5839 0.9504 12.5109
v  -28.8802 0.9504 12.5109
# 56 vertices

vn 0.0000 -1.0000 -0.0000
vn 0.0000 1.0000 -0.0000
vn 0.0000 0.0000 1.0000
vn 1.0000 0.0000 -0.0000
vn 0.0000 0.0000 -1.0000
vn -1.0000 0.0000 -0.0000
# 6 vertex normals

vt 0.4512 0.4595 0.0000
vt 0.2632 0.4595 0.0000
vt 0.2632 0.0871 0.0000
vt 0.4512 0.0871 0.0000
vt 0.2669 0.0871 0.0000
vt 0.2669 0.4595 0.0000
vt 0.0789 0.4595 0.0000
vt 0.0789 0.0871 0.0000
vt 0.0589 0.5597 0.0000
vt 0.4259 0.5597 0.0000
vt 0.4259 0.9267 0.0000
vt 0.0589 0.9267 0.0000
vt 0.2406 0.5597 0.0000
vt 0.2406 0.9267 0.0000
vt 0.9266 0.4444 0.0000
vt 0.7650 0.4444 0.0000
vt 0.7650 0.1146 0.0000
vt 0.9266 0.1146 0.0000
vt 0.7584 0.1146 0.0000
vt 0.7584 0.4444 0.0000
vt 0.5968 0.4444 0.0000
vt 0.5968 0.1146 0.0000
vt 0.0644 0.6002 0.0000
vt 0.3916 0.6002 0.0000
vt 0.3916 0.9274 0.0000
vt 0.0644 0.9274 0.0000
vt 0.2312 0.6002 0.0000
vt 0.2312 0.9274 0.0000
vt 0.8876 0.6214 0.0000
vt 0.8876 0.9144 0.0000
vt 0.5946 0.9144 0.0000
vt 0.5946 0.6214 0.0000
vt 0.8836 0.6336 0.0000
vt 0.8836 0.8939 0.0000
vt 0.6233 0.8939 0.0000
vt 0.6233 0.6336 0.0000
vt 0.4638 0.5280 0.0000
vt 0.4638 0.9707 0.0000
vt 0.0210 0.9707 0.0000
vt 0.0210 0.5280 0.0000
vt 0.4331 0.5627 0.0000
vt 0.4331 0.9401 0.0000
vt 0.0558 0.9401 0.0000
vt 0.0558 0.5627 0.0000
vt 0.2247 0.9274 0.0000
vt 0.2247 0.6002 0.0000
vt 0.2442 0.9267 0.0000
vt 0.2442 0.5597 0.0000
# 48 texture coords

g Box005
s 2
f 1/1/1 2/2/1 3/3/1 
f 3/3/1 4/4/1 1/1/1 
s 4
f 5/5/2 6/6/2 7/7/2 
f 7/7/2 8/8/2 5/5/2 
s 8
f 3/5/3 5/6/3 8/7/3 
f 8/7/3 4/8/3 3/5/3 
s 16
f 9/9/4 10/10/4 11/11/4 
f 11/11/4 12/12/4 9/9/4 
s 32
f 2/13/5 6/14/5 11/12/5 
f 11/12/5 10/9/5 2/13/5 
s 64
f 1/8/6 4/4/6 8/1/6 
f 8/1/6 7/7/6 1/8/6 
s 2
f 13/15/1 14/16/1 15/17/1 
f 15/17/1 16/18/1 13/15/1 
s 4
f 17/19/2 18/20/2 19/21/2 
f 19/21/2 20/22/2 17/19/2 
s 8
f 15/19/3 17/20/3 20/21/3 
f 20/21/3 16/22/3 15/19/3 
s 16
f 21/23/4 22/24/4 23/25/4 
f 23/25/4 24/26/4 21/23/4 
s 32
f 14/27/5 18/28/5 23/26/5 
f 23/26/5 22/23/5 14/27/5 
s 64
f 13/22/6 16/18/6 20/15/6 
f 20/15/6 19/21/6 13/22/6 
s 2
f 25/29/1 26/30/1 27/31/1 
f 27/31/1 28/32/1 25/29/1 
s 4
f 29/32/2 30/29/2 31/30/2 
f 31/30/2 32/31/2 29/32/2 
s 8
f 25/32/3 28/29/3 30/30/3 
f 30/30/3 29/31/3 25/32/3 
s 16
f 28/32/4 27/29/4 31/30/4 
f 31/30/4 30/31/4 28/32/4 
s 32
f 27/32/5 26/29/5 32/30/5 
f 32/30/5 31/31/5 27/32/5 
s 64
f 26/32/6 25/29/6 29/30/6 
f 29/30/6 32/31/6 26/32/6 
s 2
f 33/33/1 34/34/1 35/35/1 
f 35/35/1 36/36/1 33/33/1 
s 4
f 37/36/2 38/33/2 39/34/2 
f 39/34/2 40/35/2 37/36/2 
s 8
f 33/36/3 36/33/3 38/34/3 
f 38/34/3 37/35/3 33/36/3 
s 16
f 36/36/4 35/33/4 39/34/4 
f 39/34/4 38/35/4 36/36/4 
s 32
f 35/36/5 34/33/5 40/34/5 
f 40/34/5 39/35/5 35/36/5 
s 64
f 34/36/6 33/33/6 37/34/6 
f 37/34/6 40/35/6 34/36/6 
s 2
f 41/37/1 42/38/1 43/39/1 
f 43/39/1 44/40/1 41/37/1 
s 4
f 45/40/2 46/37/2 47/38/2 
f 47/38/2 48/39/2 45/40/2 
s 8
f 41/40/3 44/37/3 46/38/3 
f 46/38/3 45/39/3 41/40/3 
s 16
f 44/40/4 43/37/4 47/38/4 
f 47/38/4 46/39/4 44/40/4 
s 32
f 43/40/5 42/37/5 48/38/5 
f 48/38/5 47/39/5 43/40/5 
s 64
f 42/40/6 41/37/6 45/38/6 
f 45/38/6 48/39/6 42/40/6 
s 2
f 49/41/1 50/42/1 51/43/1 
f 51/43/1 52/44/1 49/41/1 
s 4
f 53/44/2 54/41/2 55/42/2 
f 55/42/2 56/43/2 53/44/2 
s 8
f 49/44/3 52/41/3 54/42/3 
f 54/42/3 53/43/3 49/44/3 
s 16
f 52/44/4 51/41/4 55/42/4 
f 55/42/4 54/43/4 52/44/4 
s 32
f 51/44/5 50/41/5 56/42/5 
f 56/42/5 55/43/5 51/44/5 
s 64
f 50/44/6 49/41/6 53/42/6 
f 53/42/6 56/43/6 50/44/6 
s 2
f 22/26/1 21/23/1 15/27/1 
f 15/27/1 14/28/1 22/26/1 
s 4
f 24/24/2 23/25/2 18/45/2 
f 18/45/2 17/46/2 24/24/2 
s 8
f 21/24/3 24/25/3 17/45/3 
f 17/45/3 15/46/3 21/24/3 
s 32
f 13/18/5 19/15/5 18/16/5 
f 18/16/5 14/17/5 13/18/5 
s 2
f 10/12/1 9/9/1 3/13/1 
f 3/13/1 2/14/1 10/12/1 
s 4
f 12/10/2 11/11/2 6/47/2 
f 6/47/2 5/48/2 12/10/2 
s 8
f 9/10/3 12/11/3 5/47/3 
f 5/47/3 3/48/3 9/10/3 
s 32
f 1/4/5 7/1/5 6/2/5 
f 6/2/5 2/3/5 1/4/5 
# 88 faces

