# 3ds Max Wavefront OBJ Exporter v0.97b - (c)2007 guruware
# File Created: 25.07.2019 22:48:07

#
# object Sphere001
#

v  -9.9880 63.5041 15.9434
v  -9.9880 60.3221 4.0680
v  -15.9256 60.3221 5.6590
v  -20.2723 60.3221 10.0057
v  -21.8633 60.3221 15.9434
v  -20.2723 60.3221 21.8810
v  -15.9256 60.3221 26.2277
v  -9.9880 60.3221 27.8187
v  -4.0503 60.3221 26.2277
v  0.2964 60.3221 21.8810
v  1.8874 60.3221 15.9434
v  0.2964 60.3221 10.0057
v  -4.0503 60.3221 5.6590
v  -20.2723 51.6288 -1.8696
v  -9.9880 51.6288 -4.6253
v  -27.8009 51.6288 5.6590
v  -30.5566 51.6288 15.9434
v  -27.8009 51.6288 26.2277
v  -20.2723 51.6288 33.7563
v  -9.9880 51.6288 36.5120
v  0.2964 51.6288 33.7563
v  7.8250 51.6288 26.2277
v  10.5807 51.6288 15.9434
v  7.8250 51.6288 5.6590
v  0.2964 51.6288 -1.8696
v  -21.8633 39.7534 -4.6253
v  -9.9880 39.7534 -7.8073
v  -30.5566 39.7534 4.0680
v  -33.7386 39.7534 15.9434
v  -30.5566 39.7534 27.8187
v  -21.8633 39.7534 36.5120
v  -9.9880 39.7534 39.6940
v  1.8874 39.7534 36.5120
v  10.5807 39.7534 27.8187
v  13.7627 39.7534 15.9434
v  10.5807 39.7534 4.0681
v  1.8874 39.7534 -4.6253
v  -20.2723 27.8781 -1.8696
v  -9.9880 27.8781 -4.6253
v  -27.8009 27.8781 5.6590
v  -30.5566 27.8781 15.9434
v  -27.8009 27.8781 26.2277
v  -20.2723 27.8781 33.7563
v  -9.9880 27.8781 36.5120
v  0.2964 27.8781 33.7563
v  7.8250 27.8781 26.2277
v  10.5807 27.8781 15.9434
v  7.8250 27.8781 5.6590
v  0.2964 27.8781 -1.8696
v  -15.9256 19.1848 5.6590
v  -9.9880 19.1848 4.0680
v  -20.2723 19.1848 10.0057
v  -21.8633 19.1848 15.9434
v  -20.2723 19.1848 21.8810
v  -15.9256 19.1848 26.2277
v  -9.9880 19.1848 27.8187
v  -4.0503 19.1848 26.2277
v  0.2964 19.1848 21.8810
v  1.8874 19.1848 15.9434
v  0.2964 19.1848 10.0057
v  -4.0503 19.1848 5.6590
v  -9.9880 16.0028 15.9434
# 62 vertices

vn -0.0000 1.0000 -0.0000
vn 0.0000 0.8474 -0.5309
vn -0.2654 0.8474 -0.4598
vn -0.4598 0.8474 -0.2654
vn -0.5309 0.8474 -0.0000
vn -0.4598 0.8474 0.2654
vn -0.2655 0.8474 0.4598
vn -0.0000 0.8474 0.5309
vn 0.2654 0.8474 0.4598
vn 0.4598 0.8474 0.2655
vn 0.5309 0.8474 0.0000
vn 0.4598 0.8474 -0.2654
vn 0.2655 0.8474 -0.4598
vn -0.4380 0.4823 -0.7586
vn 0.0000 0.4823 -0.8760
vn -0.7586 0.4823 -0.4380
vn -0.8760 0.4823 -0.0000
vn -0.7586 0.4823 0.4380
vn -0.4380 0.4823 0.7586
vn -0.0000 0.4823 0.8760
vn 0.4380 0.4823 0.7586
vn 0.7586 0.4823 0.4380
vn 0.8760 0.4823 0.0000
vn 0.7586 0.4823 -0.4380
vn 0.4380 0.4823 -0.7586
vn -0.5000 0.0000 -0.8660
vn 0.0000 -0.0000 -1.0000
vn -0.8660 0.0000 -0.5000
vn -1.0000 0.0000 -0.0000
vn -0.8660 0.0000 0.5000
vn -0.5000 0.0000 0.8660
vn -0.0000 0.0000 1.0000
vn 0.5000 0.0000 0.8660
vn 0.8660 0.0000 0.5000
vn 1.0000 0.0000 0.0000
vn 0.8660 0.0000 -0.5000
vn 0.5000 -0.0000 -0.8660
vn -0.4380 -0.4823 -0.7586
vn 0.0000 -0.4823 -0.8760
vn -0.7586 -0.4823 -0.4380
vn -0.8760 -0.4823 -0.0000
vn -0.7586 -0.4823 0.4380
vn -0.4380 -0.4823 0.7586
vn -0.0000 -0.4823 0.8760
vn 0.4380 -0.4823 0.7586
vn 0.7586 -0.4823 0.4380
vn 0.8760 -0.4823 0.0000
vn 0.7586 -0.4823 -0.4380
vn 0.4380 -0.4823 -0.7586
vn -0.2654 -0.8474 -0.4598
vn 0.0000 -0.8474 -0.5309
vn -0.4598 -0.8474 -0.2654
vn -0.5309 -0.8474 -0.0000
vn -0.4598 -0.8474 0.2654
vn -0.2655 -0.8474 0.4598
vn -0.0000 -0.8474 0.5309
vn 0.2654 -0.8474 0.4598
vn 0.4598 -0.8474 0.2655
vn 0.5309 -0.8474 0.0000
vn 0.4598 -0.8474 -0.2654
vn 0.2655 -0.8474 -0.4598
vn -0.0000 -1.0000 -0.0000
# 62 vertex normals

vt 0.0000 1.0000 0.0000
vt 0.0000 0.8333 0.0000
vt 0.0833 0.8333 0.0000
vt 0.0833 1.0000 0.0000
vt 0.1667 0.8333 0.0000
vt 0.1667 1.0000 0.0000
vt 0.2500 0.8333 0.0000
vt 0.2500 1.0000 0.0000
vt 0.3333 0.8333 0.0000
vt 0.3333 1.0000 0.0000
vt 0.4167 0.8333 0.0000
vt 0.4167 1.0000 0.0000
vt 0.5000 0.8333 0.0000
vt 0.5000 1.0000 0.0000
vt 0.5833 0.8333 0.0000
vt 0.5833 1.0000 0.0000
vt 0.6667 0.8333 0.0000
vt 0.6667 1.0000 0.0000
vt 0.7500 0.8333 0.0000
vt 0.7500 1.0000 0.0000
vt 0.8333 0.8333 0.0000
vt 0.8333 1.0000 0.0000
vt 0.9167 0.8333 0.0000
vt 0.9167 1.0000 0.0000
vt 1.0000 0.8333 0.0000
vt 0.0833 0.6667 0.0000
vt 0.0000 0.6667 0.0000
vt 0.1667 0.6667 0.0000
vt 0.2500 0.6667 0.0000
vt 0.3333 0.6667 0.0000
vt 0.4167 0.6667 0.0000
vt 0.5000 0.6667 0.0000
vt 0.5833 0.6667 0.0000
vt 0.6667 0.6667 0.0000
vt 0.7500 0.6667 0.0000
vt 0.8333 0.6667 0.0000
vt 0.9167 0.6667 0.0000
vt 1.0000 0.6667 0.0000
vt 0.0833 0.5000 0.0000
vt 0.0000 0.5000 0.0000
vt 0.1667 0.5000 0.0000
vt 0.2500 0.5000 0.0000
vt 0.3333 0.5000 0.0000
vt 0.4167 0.5000 0.0000
vt 0.5000 0.5000 0.0000
vt 0.5833 0.5000 0.0000
vt 0.6667 0.5000 0.0000
vt 0.7500 0.5000 0.0000
vt 0.8333 0.5000 0.0000
vt 0.9167 0.5000 0.0000
vt 1.0000 0.5000 0.0000
vt 0.0833 0.3333 0.0000
vt 0.0000 0.3333 0.0000
vt 0.1667 0.3333 0.0000
vt 0.2500 0.3333 0.0000
vt 0.3333 0.3333 0.0000
vt 0.4167 0.3333 0.0000
vt 0.5000 0.3333 0.0000
vt 0.5833 0.3333 0.0000
vt 0.6667 0.3333 0.0000
vt 0.7500 0.3333 0.0000
vt 0.8333 0.3333 0.0000
vt 0.9167 0.3333 0.0000
vt 1.0000 0.3333 0.0000
vt 0.0833 0.1667 0.0000
vt 0.0000 0.1667 0.0000
vt 0.1667 0.1667 0.0000
vt 0.2500 0.1667 0.0000
vt 0.3333 0.1667 0.0000
vt 0.4167 0.1667 0.0000
vt 0.5000 0.1667 0.0000
vt 0.5833 0.1667 0.0000
vt 0.6667 0.1667 0.0000
vt 0.7500 0.1667 0.0000
vt 0.8333 0.1667 0.0000
vt 0.9167 0.1667 0.0000
vt 1.0000 0.1667 0.0000
vt 0.0000 0.0000 0.0000
vt 0.0833 0.0000 0.0000
vt 0.1667 0.0000 0.0000
vt 0.2500 0.0000 0.0000
vt 0.3333 0.0000 0.0000
vt 0.4167 0.0000 0.0000
vt 0.5000 0.0000 0.0000
vt 0.5833 0.0000 0.0000
vt 0.6667 0.0000 0.0000
vt 0.7500 0.0000 0.0000
vt 0.8333 0.0000 0.0000
vt 0.9167 0.0000 0.0000
# 89 texture coords

g Sphere001
s 1
f 1/1/1 2/2/2 3/3/3 
f 1/4/1 3/3/3 4/5/4 
f 1/6/1 4/5/4 5/7/5 
f 1/8/1 5/7/5 6/9/6 
f 1/10/1 6/9/6 7/11/7 
f 1/12/1 7/11/7 8/13/8 
f 1/14/1 8/13/8 9/15/9 
f 1/16/1 9/15/9 10/17/10 
f 1/18/1 10/17/10 11/19/11 
f 1/20/1 11/19/11 12/21/12 
f 1/22/1 12/21/12 13/23/13 
f 1/24/1 13/23/13 2/25/2 
f 14/26/14 3/3/3 2/2/2 
f 2/2/2 15/27/15 14/26/14 
f 16/28/16 4/5/4 3/3/3 
f 3/3/3 14/26/14 16/28/16 
f 17/29/17 5/7/5 4/5/4 
f 4/5/4 16/28/16 17/29/17 
f 18/30/18 6/9/6 5/7/5 
f 5/7/5 17/29/17 18/30/18 
f 19/31/19 7/11/7 6/9/6 
f 6/9/6 18/30/18 19/31/19 
f 20/32/20 8/13/8 7/11/7 
f 7/11/7 19/31/19 20/32/20 
f 21/33/21 9/15/9 8/13/8 
f 8/13/8 20/32/20 21/33/21 
f 22/34/22 10/17/10 9/15/9 
f 9/15/9 21/33/21 22/34/22 
f 23/35/23 11/19/11 10/17/10 
f 10/17/10 22/34/22 23/35/23 
f 24/36/24 12/21/12 11/19/11 
f 11/19/11 23/35/23 24/36/24 
f 25/37/25 13/23/13 12/21/12 
f 12/21/12 24/36/24 25/37/25 
f 15/38/15 2/25/2 13/23/13 
f 13/23/13 25/37/25 15/38/15 
f 26/39/26 14/26/14 15/27/15 
f 15/27/15 27/40/27 26/39/26 
f 28/41/28 16/28/16 14/26/14 
f 14/26/14 26/39/26 28/41/28 
f 29/42/29 17/29/17 16/28/16 
f 16/28/16 28/41/28 29/42/29 
f 30/43/30 18/30/18 17/29/17 
f 17/29/17 29/42/29 30/43/30 
f 31/44/31 19/31/19 18/30/18 
f 18/30/18 30/43/30 31/44/31 
f 32/45/32 20/32/20 19/31/19 
f 19/31/19 31/44/31 32/45/32 
f 33/46/33 21/33/21 20/32/20 
f 20/32/20 32/45/32 33/46/33 
f 34/47/34 22/34/22 21/33/21 
f 21/33/21 33/46/33 34/47/34 
f 35/48/35 23/35/23 22/34/22 
f 22/34/22 34/47/34 35/48/35 
f 36/49/36 24/36/24 23/35/23 
f 23/35/23 35/48/35 36/49/36 
f 37/50/37 25/37/25 24/36/24 
f 24/36/24 36/49/36 37/50/37 
f 27/51/27 15/38/15 25/37/25 
f 25/37/25 37/50/37 27/51/27 
f 38/52/38 26/39/26 27/40/27 
f 27/40/27 39/53/39 38/52/38 
f 40/54/40 28/41/28 26/39/26 
f 26/39/26 38/52/38 40/54/40 
f 41/55/41 29/42/29 28/41/28 
f 28/41/28 40/54/40 41/55/41 
f 42/56/42 30/43/30 29/42/29 
f 29/42/29 41/55/41 42/56/42 
f 43/57/43 31/44/31 30/43/30 
f 30/43/30 42/56/42 43/57/43 
f 44/58/44 32/45/32 31/44/31 
f 31/44/31 43/57/43 44/58/44 
f 45/59/45 33/46/33 32/45/32 
f 32/45/32 44/58/44 45/59/45 
f 46/60/46 34/47/34 33/46/33 
f 33/46/33 45/59/45 46/60/46 
f 47/61/47 35/48/35 34/47/34 
f 34/47/34 46/60/46 47/61/47 
f 48/62/48 36/49/36 35/48/35 
f 35/48/35 47/61/47 48/62/48 
f 49/63/49 37/50/37 36/49/36 
f 36/49/36 48/62/48 49/63/49 
f 39/64/39 27/51/27 37/50/37 
f 37/50/37 49/63/49 39/64/39 
f 50/65/50 38/52/38 39/53/39 
f 39/53/39 51/66/51 50/65/50 
f 52/67/52 40/54/40 38/52/38 
f 38/52/38 50/65/50 52/67/52 
f 53/68/53 41/55/41 40/54/40 
f 40/54/40 52/67/52 53/68/53 
f 54/69/54 42/56/42 41/55/41 
f 41/55/41 53/68/53 54/69/54 
f 55/70/55 43/57/43 42/56/42 
f 42/56/42 54/69/54 55/70/55 
f 56/71/56 44/58/44 43/57/43 
f 43/57/43 55/70/55 56/71/56 
f 57/72/57 45/59/45 44/58/44 
f 44/58/44 56/71/56 57/72/57 
f 58/73/58 46/60/46 45/59/45 
f 45/59/45 57/72/57 58/73/58 
f 59/74/59 47/61/47 46/60/46 
f 46/60/46 58/73/58 59/74/59 
f 60/75/60 48/62/48 47/61/47 
f 47/61/47 59/74/59 60/75/60 
f 61/76/61 49/63/49 48/62/48 
f 48/62/48 60/75/60 61/76/61 
f 51/77/51 39/64/39 49/63/49 
f 49/63/49 61/76/61 51/77/51 
f 62/78/62 50/65/50 51/66/51 
f 62/79/62 52/67/52 50/65/50 
f 62/80/62 53/68/53 52/67/52 
f 62/81/62 54/69/54 53/68/53 
f 62/82/62 55/70/55 54/69/54 
f 62/83/62 56/71/56 55/70/55 
f 62/84/62 57/72/57 56/71/56 
f 62/85/62 58/73/58 57/72/57 
f 62/86/62 59/74/59 58/73/58 
f 62/87/62 60/75/60 59/74/59 
f 62/88/62 61/76/61 60/75/60 
f 62/89/62 51/77/51 61/76/61 
# 120 faces

